<svg width="427" height="100" viewBox="0 0 427 100" fill="none" xmlns="http://www.w3.org/2000/svg">
<rect width="427" height="100" fill="white"/>
<rect width="106" height="65" transform="translate(26 16)" fill="white"/>
<path opacity="0.5" d="M54.5393 54.5687C58.1092 50.9543 103.681 16.8175 104.458 17.5924C105.056 18.1879 71.1721 64.1012 67.582 67.6954C63.9926 71.2896 58.1692 71.25 54.5791 67.6356C50.9695 64.0213 50.9695 58.1629 54.5393 54.5687Z" fill="#666666"/>
<path opacity="0.3" d="M56.5535 52.9599C60.9414 50.3984 105.495 32.8039 106.034 33.7566C106.453 34.4912 70.1358 66.4834 65.7284 69.0248C61.3406 71.5669 55.737 70.0373 53.2035 65.5897C50.67 61.181 52.1657 55.5222 56.5535 52.9599Z" fill="#666666"/>
<path opacity="0.3" d="M69.1782 65.6293C71.7305 61.2214 89.2405 16.5403 88.3032 16.0037C87.5663 15.5868 55.6958 52.0266 53.1428 56.4353C50.61 60.844 52.1454 66.4632 56.573 68.9859C60.9811 71.5273 66.6252 70.0186 69.1782 65.6293Z" fill="#666666"/>
<path opacity="0.2" d="M58.6878 52.0266C63.5942 50.6965 104.737 45.6317 105.037 46.6846C105.256 47.4991 68.3009 68.5884 63.3946 69.9185C58.4882 71.2493 53.4624 68.3104 52.1664 63.3652C50.8697 58.4207 53.8009 53.3574 58.6878 52.0266Z" fill="#666666"/>
<path opacity="0.1" d="M58.6878 52.0266C63.5942 50.6965 96.8395 58.1823 97.1187 59.2158C97.3378 60.0295 68.2799 68.5689 63.3743 69.899C58.4679 71.2299 53.4429 68.291 52.1462 63.3458C50.8697 58.4207 53.8009 53.3574 58.6878 52.0266Z" fill="#666666"/>
<path opacity="0.1" d="M70.1155 63.4653C71.4513 58.5403 63.9724 25.1985 62.9158 24.9205C62.0978 24.7023 53.602 53.8342 52.2858 58.7592C50.9695 63.6843 53.9007 68.7281 58.8274 69.9992C63.733 71.3091 68.7992 68.3904 70.1155 63.4653Z" fill="#666666"/>
<path opacity="0.2" d="M70.1155 63.4653C71.4513 58.5403 76.4778 17.2748 75.4407 16.9961C74.6227 16.7779 53.6223 53.8334 52.2865 58.7786C50.9702 63.7037 53.9014 68.7476 58.8281 70.0186C63.733 71.3293 68.7992 68.3904 70.1155 63.4653Z" fill="#666666"/>
<path d="M64.0925 49.9216C61.9582 49.9216 59.3459 50.4977 57.2117 52.7021C57.2117 52.126 57.3715 51.3914 57.3715 51.1531C57.3715 50.7361 57.0526 50.9947 56.9528 50.4185H53.1833L47.9384 80.2655C47.9384 80.5038 48.1778 80.7624 48.3572 81H52.0471L54.1806 69.7406C55.8158 71.7066 57.7107 72.1833 59.4262 72.1833C67.7824 72.1833 71.4723 63.7037 71.4723 57.7467C71.4716 53.3372 69.3373 49.9216 64.0925 49.9216ZM59.505 68.3508C56.7922 68.3508 55.2365 66.4841 55.2365 64.1012C55.2365 63.8628 55.5554 61.8969 55.7355 60.7648C56.3141 56.436 59.1861 53.755 62.7754 53.755C65.8868 53.755 66.9637 55.8801 66.9637 58.3221C66.9637 61.8169 64.9097 68.3508 59.505 68.3508Z" fill="#666666"/>
<path d="M46.9809 42.4948C45.4252 41.9979 43.2114 41.7603 41.5762 41.7603C36.8296 41.7603 29.5301 44.1238 29.5301 51.233C29.5301 58.3221 40.9173 58.7398 40.9173 63.4661C40.9173 67.2986 37.1486 68.1923 34.5355 68.1923C32.82 68.1923 30.6865 67.537 29.0505 66.7225C28.472 66.4842 27.8146 65.7496 27.6547 65.7496C27.4153 65.7496 26.9966 65.988 26.7572 65.988L26 70.1374C27.3958 71.3689 31.4842 72.1826 33.5382 72.1826C37.1486 72.1826 43.0516 71.0311 44.9262 65.8281C45.2451 64.7752 45.5843 63.6237 45.5843 62.73C45.5843 55.561 34.1963 54.9057 34.1963 50.3386C34.1963 46.506 38.2847 45.8507 40.6779 45.8507C42.154 45.8507 42.8122 45.7715 44.6065 46.4268C45.1851 46.586 46.1621 47.4796 46.4015 47.4796C46.5606 47.4796 46.9801 47.2413 47.1392 47.0627C47.4582 45.832 47.9564 43.3093 47.9564 43.1509C47.9579 42.8124 46.9809 42.4948 46.9809 42.4948Z" fill="#666666"/>
<path d="M85.7307 49.9216C83.0186 49.9216 80.9046 50.3386 78.0327 52.046C78.0327 52.2052 78.0327 52.3636 77.9531 52.5429C77.7933 53.5158 77.4541 55.2435 77.4541 55.4026C77.4541 55.641 78.0327 56.0579 78.1918 56.0579C78.4312 56.0579 79.9065 54.9057 80.9039 54.5089C81.4825 54.1913 82.2997 53.9328 82.9578 53.8536C83.5364 53.6952 84.6734 53.6952 84.8324 53.6952C86.0692 53.6952 87.6248 53.7744 87.9438 55.8196V57.607C87.8642 57.6862 87.8642 57.8453 87.7847 57.8453C83.3571 58.8974 77.3738 57.607 74.2632 63.5647C73.7642 64.5376 73.5255 66.0074 73.5255 67.0797C73.5255 70.9123 76.7164 72.2229 79.5883 72.2229C81.5628 72.2229 83.6768 71.4884 85.6512 69.7802C85.6512 70.3563 85.5716 70.7531 85.5716 70.9317C85.5716 71.1701 85.811 71.5078 86.0707 71.7462H89.7606C90 68.9665 92.3729 57.3088 92.3729 55.8397C92.3519 51.3914 89.5002 49.9216 85.7307 49.9216ZM87.107 61.7377C86.608 65.908 83.7563 68.3508 80.8048 68.3508C79.3287 68.3508 78.0927 67.7746 78.0927 66.1464C78.0927 61.6585 83.4179 62.2346 85.7908 61.7384C86.1097 61.6592 86.6883 61.6592 87.107 61.5793V61.7377Z" fill="#666666"/>
<path d="M109.065 50.0016C107.27 50.0016 105.296 50.8953 103.82 52.6027C103.9 52.0266 104.06 51.2129 104.06 50.9745C104.06 50.8161 103.741 50.5575 103.56 50.3984H99.791L96.1814 70.9519C96.2609 71.1903 96.5003 71.4488 96.6804 71.6864H100.37C100.949 68.35 101.308 64.9344 102.085 61.7377C102.643 59.434 104.299 53.9926 107.989 53.9926C108.148 53.9926 108.966 54.0718 109.464 54.2309C109.624 54.2309 109.704 54.5485 109.963 54.5485C110.122 54.5485 110.621 54.3102 110.78 54.1316C111.02 53.0795 111.439 50.8751 111.439 50.6965C111.439 50.0808 109.404 50.0016 109.065 50.0016Z" fill="#666666"/>
<path d="M132 51.2128C131.92 50.9745 131.841 50.6367 131.681 50.3984H127.334L118.079 58.7189L118 58.6396L121.032 41.3433C120.952 41.105 120.713 40.8464 120.532 40.6088H116.843L111.438 71.0318C111.597 71.2702 111.857 71.528 112.016 71.6872H115.706L117.342 62.7113L124.063 71.6872H128.809C128.968 71.4488 129.128 71.111 129.228 70.8727L121.29 60.7648L132 51.2128Z" fill="#666666"/>
<rect width="70" height="70" transform="translate(158 20)" fill="white"/>
<path d="M192.77 89.8134C183.484 89.8134 174.753 86.1824 168.186 79.5895C161.62 72.9963 158.003 64.2307 158.003 54.9067C158.003 45.583 161.62 36.817 168.186 30.2241C174.753 23.6309 183.484 20 192.77 20C200.558 20 207.753 22.3256 213.893 27.1057C214.125 27.2859 214.318 27.51 214.463 27.7654C214.609 28.0208 214.702 28.3023 214.739 28.594C214.776 28.8857 214.755 29.1818 214.677 29.4653C214.6 29.7489 214.468 30.0145 214.289 30.2468C214.109 30.4791 213.886 30.6736 213.632 30.8193C213.377 30.965 213.097 31.059 212.806 31.0958C212.516 31.1327 212.221 31.1118 211.938 31.0342C211.656 30.9567 211.392 30.824 211.16 30.6438C205.81 26.4784 199.559 24.4775 192.77 24.4775C184.675 24.4775 177.064 27.6429 171.34 33.39C165.615 39.1375 162.463 46.779 162.463 54.9067C162.463 63.0346 165.615 70.6762 171.34 76.4233C177.064 82.1707 184.675 85.3358 192.77 85.3358C199.515 85.3358 205.898 83.1598 211.229 79.0432C211.698 78.6813 212.291 78.5211 212.877 78.598C213.464 78.6749 213.996 78.9824 214.356 79.4531C214.717 79.9237 214.876 80.5189 214.8 81.1076C214.723 81.6964 214.417 82.2304 213.948 82.5924C207.83 87.3164 200.507 89.8134 192.77 89.8134V89.8134ZM199.964 54.8051C199.964 58.8514 196.697 62.1318 192.667 62.1318C188.636 62.1318 185.369 58.8514 185.369 54.8051C185.369 50.7586 188.636 47.4784 192.667 47.4784C196.697 47.4784 199.964 50.7586 199.964 54.8051ZM209.514 54.7939C209.514 56.3363 208.269 57.5867 206.732 57.5867C205.196 57.5867 203.951 56.3363 203.951 54.7939C203.951 53.2511 205.196 52.001 206.732 52.001C208.269 52.001 209.514 53.2511 209.514 54.7939ZM218.571 49.5021C218.571 51.0446 217.326 52.295 215.789 52.295C214.253 52.295 213.008 51.0446 213.008 49.5021C213.008 47.9597 214.253 46.7093 215.789 46.7093C217.326 46.7093 218.571 47.9597 218.571 49.5021V49.5021ZM218.571 60.5827C218.571 62.1255 217.326 63.3756 215.789 63.3756C214.253 63.3756 213.008 62.1252 213.008 60.5827C213.008 59.0403 214.253 57.7899 215.789 57.7899C217.326 57.7899 218.571 59.0403 218.571 60.5827ZM227.997 49.5021C227.997 51.0446 226.751 52.295 225.215 52.295C223.679 52.295 222.434 51.0446 222.434 49.5021C222.434 47.9597 223.679 46.7093 225.215 46.7093C226.752 46.7093 227.997 47.9597 227.997 49.5021V49.5021ZM223.402 38.8511C223.402 40.3936 222.157 41.644 220.62 41.644C219.084 41.644 217.839 40.3936 217.839 38.8511C217.839 37.3087 219.084 36.0583 220.62 36.0583C222.157 36.0583 223.402 37.3087 223.402 38.8511ZM223.402 70.9397C223.402 72.4825 222.157 73.7326 220.62 73.7326C219.084 73.7326 217.839 72.4822 217.839 70.9397C217.839 69.3972 219.084 68.1468 220.62 68.1468C222.157 68.1468 223.402 69.3972 223.402 70.9397ZM227.997 60.5827C227.997 62.1255 226.751 63.3756 225.215 63.3756C223.679 63.3756 222.434 62.1252 222.434 60.5827C222.434 59.0403 223.679 57.7899 225.215 57.7899C226.752 57.7899 227.997 59.0403 227.997 60.5827Z" fill="#666666"/>
<rect width="60" height="70" transform="translate(262 20)" fill="white"/>
<path fill-rule="evenodd" clip-rule="evenodd" d="M262 37.3709V71.9394L292.163 89.7914L292.863 88.6816L292.163 55.1318L263.037 37.3914L262 37.3709Z" fill="#666666" fill-opacity="0.63"/>
<path fill-rule="evenodd" clip-rule="evenodd" d="M322 37.2085V72.264L292.163 89.7916V55.1318L320.907 37.2349L322 37.2085Z" fill="#666666" fill-opacity="0.63"/>
<path fill-rule="evenodd" clip-rule="evenodd" d="M292 20.0063L322 37.2093L292.163 55.7109L262 37.3717L292 20.0063Z" fill="#666666" fill-opacity="0.63"/>
<path fill-rule="evenodd" clip-rule="evenodd" d="M307.069 33.7913L296.922 39.7032V51.6359L286.756 45.6269L276.98 51.3228V76.2636L287.127 70.0698V56.6448L297.964 63.4547L307.069 57.8971V33.7913Z" fill="#666666" fill-opacity="0.63"/>
<g clip-path="url(#clip0)">
<rect width="38" height="70" transform="translate(357 20)" fill="white"/>
<path d="M393.399 75.1978H393.133V75.0502H393.85V75.1978H393.585V75.9338H393.399V75.1978V75.1978ZM394.829 75.2362H394.825L394.561 75.934H394.44L394.178 75.2362H394.175V75.934H393.999V75.0505H394.257L394.501 75.6761L394.743 75.0505H395V75.934H394.829L394.829 75.2362V75.2362Z" fill="#666666"/>
<path d="M369.564 57.1314C369.564 57.1314 367.711 58.1983 370.882 58.5593C374.723 58.9933 376.687 58.931 380.92 58.1376C380.92 58.1376 382.033 58.8287 383.587 59.4273C374.097 63.4551 362.11 59.194 369.564 57.1314ZM368.404 51.8754C368.404 51.8754 366.326 53.3985 369.499 53.7235C373.603 54.1428 376.844 54.177 382.451 53.1077C382.451 53.1077 383.227 53.8864 384.447 54.3123C372.973 57.6349 360.193 54.5743 368.404 51.8754" fill="#666666"/>
<path d="M378.18 42.9594C380.518 45.6254 377.566 48.0247 377.566 48.0247C377.566 48.0247 383.503 44.9893 380.776 41.1883C378.229 37.6435 376.276 35.8825 386.849 29.81C386.849 29.8099 370.253 33.9146 378.18 42.9594" fill="#666666"/>
<path d="M390.731 61.0191C390.731 61.0191 392.102 62.1379 389.221 63.0032C383.744 64.6465 366.422 65.1427 361.611 63.0688C359.881 62.3234 363.125 61.2893 364.145 61.0723C365.209 60.8438 365.817 60.8864 365.817 60.8864C363.894 59.5444 353.384 63.5213 360.479 64.6603C379.828 67.7678 395.75 63.261 390.731 61.0191V61.0191ZM370.454 46.4295C370.454 46.4295 361.644 48.5019 367.334 49.2545C369.737 49.573 374.527 49.501 378.988 49.1308C382.635 48.8262 386.296 48.1787 386.296 48.1787C386.296 48.1787 385.01 48.7239 384.08 49.3528C375.133 51.6832 357.849 50.599 362.825 48.2154C367.033 46.201 370.454 46.4295 370.454 46.4295V46.4295ZM386.26 55.1785C395.355 50.4981 391.15 46.0001 388.214 46.6062C387.495 46.7545 387.174 46.883 387.174 46.883C387.174 46.883 387.441 46.4687 387.951 46.2893C393.758 44.2677 398.224 52.252 386.077 55.4145C386.077 55.4145 386.218 55.29 386.26 55.1785Z" fill="#666666"/>
<path d="M380.776 20.0046C380.776 20.0046 385.813 24.9943 375.999 32.6675C368.129 38.8224 374.204 42.3319 375.995 46.3417C371.402 42.2369 368.03 38.6237 370.292 35.2607C373.612 30.3241 382.808 27.9307 380.776 20.0046" fill="#666666"/>
<path d="M371.348 67.8611C380.078 68.4146 393.484 67.5541 393.802 63.4634C393.802 63.4634 393.191 65.0141 386.587 66.2458C379.136 67.6343 369.945 67.4723 364.494 66.5823C364.495 66.5821 365.61 67.4968 371.348 67.8611" fill="#666666"/>
<path d="M369.917 83.4925C369.094 84.1999 368.224 84.597 367.443 84.597C366.329 84.597 365.727 83.9354 365.727 82.8743C365.727 81.7264 366.372 80.8871 368.96 80.8871H369.917L369.917 83.4925V83.4925ZM372.19 86.0317V78.1719C372.19 76.1639 371.034 74.8392 368.245 74.8392C366.618 74.8392 365.192 75.2372 364.033 75.7448L364.368 77.1361C365.28 76.8044 366.461 76.4957 367.62 76.4957C369.226 76.4957 369.917 77.1361 369.917 78.4601V79.4536H369.116C365.214 79.4536 363.453 80.9537 363.453 83.2051C363.453 85.1484 364.613 86.2529 366.797 86.2529C368.201 86.2529 369.249 85.6788 370.229 84.8388L370.407 86.0319L372.19 86.0317V86.0317ZM379.774 86.0317H376.94L373.529 75.0382H376.004L378.12 81.7925L378.591 83.8239C379.662 80.8869 380.419 77.9072 380.798 75.0382H383.206C382.56 78.6582 381.4 82.6317 379.774 86.0317V86.0317ZM390.647 83.4925C389.822 84.1999 388.95 84.597 388.17 84.597C387.057 84.597 386.454 83.9354 386.454 82.8743C386.454 81.7264 387.1 80.8871 389.687 80.8871H390.647V83.4925ZM392.919 86.0317V78.1719C392.919 76.1639 391.76 74.8392 388.975 74.8392C387.346 74.8392 385.92 75.2372 384.761 75.7448L385.096 77.1361C386.008 76.8044 387.191 76.4957 388.35 76.4957C389.955 76.4957 390.647 77.1361 390.647 78.4601V79.4536H389.844C385.94 79.4536 384.181 80.9537 384.181 83.2051C384.181 85.1484 385.34 86.2529 387.524 86.2529C388.928 86.2529 389.976 85.6788 390.957 84.8388L391.136 86.0319L392.919 86.0317V86.0317ZM360.962 87.8984C360.314 88.8351 359.267 89.5762 358.122 89.9954L357 88.6879C357.872 88.2448 358.62 87.5293 358.967 86.8629C359.268 86.2701 359.392 85.5062 359.392 83.6792V71.1285H361.806V83.5073C361.806 85.9496 361.609 86.9363 360.962 87.8984" fill="#666666"/>
</g>
<defs>
<clipPath id="clip0">
<rect width="38" height="70" fill="white" transform="translate(357 20)"/>
</clipPath>
</defs>
</svg>
